<?xml version="1.0" encoding="UTF-8"?>
<svg xmlns="http://www.w3.org/2000/svg" width="176.3889mm" height="176.3889mm" version="1.1" xmlns:xlink="http://www.w3.org/1999/xlink" viewBox="0 0 500 500">
  <defs>
    <clipPath id="clippath">
      <polygon points="1 1 2 1 1 2 1 1" fill="none"/>
    </clipPath>
    <clipPath id="clippath-1">
      <polygon points="-1 -1 -2 -1 -1 -2 -1 -1" clip-path="url(#clippath)" fill="none"/>
    </clipPath>
    <clipPath id="clippath-2">
      <path d="M369.9999,18.0003v111.9996h112.0005V18.0003h-112.0005ZM386.0001,33.9996h80.0001v80.0001h-80.0001V33.9996ZM338.0004,18.0003v15.9993h15.9993v-15.9993h-15.9993ZM322.0002,18.0003v15.9993h16.0002v-15.9993h-16.0002ZM306,18.0003v15.9993h16.0002v-15.9993h-16.0002ZM289.9998,18.0003v31.9995h16.0002v-31.9995h-16.0002ZM273.9996,18.0003v15.9993h16.0002v-15.9993h-16.0002ZM258.0003,18.0003v15.9993h15.9993v-15.9993h-15.9993ZM225.9999,18.0003v31.9995h16.0002v-31.9995h-16.0002ZM18,18.0003v111.9996h111.9996V18.0003H18ZM34.0002,33.9996h80.0001v80.0001H34.0002V33.9996ZM194.0004,33.9996v16.0002h15.9993v-16.0002h-15.9993ZM162,33.9996v16.0002h16.0002v-16.0002h-16.0002ZM145.9998,33.9996v112.0005h16.0002V33.9996h-16.0002ZM402.0003,49.9998v48.0005h47.9997v-48.0005h-47.9997ZM322.0002,49.9998v16.0002h16.0002v-16.0002h-16.0002ZM242.0001,49.9998v48.0005h16.0002v-48.0005h-16.0002ZM209.9997,49.9998v16.0002h16.0002v-16.0002h-16.0002ZM50.0004,49.9998v48.0005h47.9997v-48.0005h-47.9997ZM338.0004,66v32.0004h15.9993v-32.0004h-15.9993ZM306,66v32.0004h16.0002v-32.0004h-16.0002ZM289.9998,66v32.0004h16.0002v-32.0004h-16.0002ZM178.0002,66v16.0002h16.0002v-16.0002h-16.0002ZM162,66v16.0002h16.0002v-16.0002h-16.0002ZM225.9999,82.0002v31.9995h16.0002v-31.9995h-16.0002ZM209.9997,82.0002v16.0002h16.0002v-16.0002h-16.0002ZM194.0004,82.0002v16.0002h15.9993v-16.0002h-15.9993ZM273.9996,98.0004v31.9995h16.0002v-31.9995h-16.0002ZM162,98.0004v15.9993h16.0002v-15.9993h-16.0002ZM338.0004,113.9997v32.0004h15.9993v-32.0004h-15.9993ZM306,113.9997v16.0002h16.0002v-16.0002h-16.0002ZM242.0001,113.9997v16.0002h16.0002v-16.0002h-16.0002ZM209.9997,113.9997v32.0004h16.0002v-32.0004h-16.0002ZM178.0002,113.9997v48.0006h16.0002v-48.0006h-16.0002ZM258.0003,129.9999v16.0002h15.9993v-16.0002h-15.9993ZM225.9999,129.9999v47.9997h16.0002v-47.9997h-16.0002ZM194.0004,129.9999v16.0002h15.9993v-16.0002h-15.9993ZM162,129.9999v16.0002h16.0002v-16.0002h-16.0002ZM450,146.0001v80.0001h16.0002v-80.0001h-16.0002ZM433.9998,146.0001v47.9997h16.0002v-47.9997h-16.0002ZM417.9996,146.0001v31.9995h16.0002v-31.9995h-16.0002ZM402.0003,146.0001v47.9997h15.9993v-47.9997h-15.9993ZM386.0001,146.0001v16.0002h16.0002v-16.0002h-16.0002ZM369.9999,146.0001v16.0002h16.0002v-16.0002h-16.0002ZM353.9997,146.0001v31.9995h16.0002v-31.9995h-16.0002ZM322.0002,146.0001v47.9997h16.0002v-47.9997h-16.0002ZM306,146.0001v16.0002h16.0002v-16.0002h-16.0002ZM289.9998,146.0001v31.9995h16.0002v-31.9995h-16.0002ZM114.0003,146.0001v16.0002h15.9993v-16.0002h-15.9993ZM98.0001,146.0001v96.0003h16.0002v-96.0003h-16.0002ZM81.9999,146.0001v16.0002h16.0002v-16.0002h-16.0002ZM18,146.0001v47.9997h16.0002v-47.9997h-16.0002ZM466.0002,162.0003v15.9993h16.0002v-15.9993h-16.0002ZM338.0004,162.0003v15.9993h15.9993v-15.9993h-15.9993ZM273.9996,162.0003v31.9995h16.0002v-31.9995h-16.0002ZM242.0001,162.0003v31.9995h16.0002v-31.9995h-16.0002ZM209.9997,162.0003v15.9993h16.0002v-15.9993h-16.0002ZM194.0004,162.0003v31.9995h15.9993v-31.9995h-15.9993ZM129.9996,162.0003v15.9993h16.0002v-15.9993h-16.0002ZM65.9997,162.0003v15.9993h16.0002v-15.9993h-16.0002ZM386.0001,177.9996v48.0006h16.0002v-48.0006h-16.0002ZM369.9999,177.9996v16.0002h16.0002v-16.0002h-16.0002ZM258.0003,177.9996v16.0002h15.9993v-16.0002h-15.9993ZM114.0003,177.9996v16.0002h15.9993v-16.0002h-15.9993ZM81.9999,177.9996v16.0002h16.0002v-16.0002h-16.0002ZM306,193.9998v32.0004h16.0002v-32.0004h-16.0002ZM225.9999,193.9998v63.9999h16.0002v-63.9999h-16.0002ZM178.0002,193.9998v16.0002h16.0002v-16.0002h-16.0002ZM162,193.9998v127.9998h16.0002v-127.9998h-16.0002ZM129.9996,193.9998v16.0002h16.0002v-16.0002h-16.0002ZM65.9997,193.9998v48.0006h16.0002v-48.0006h-16.0002ZM50.0004,193.9998v16.0002h15.9993v-16.0002h-15.9993ZM466.0002,210v176.0004h16.0002v-176.0004h-16.0002ZM433.9998,210v16.0002h16.0002v-16.0002h-16.0002ZM369.9999,210v32.0004h16.0002v-32.0004h-16.0002ZM289.9998,210v96.0003h16.0002v-96.0003h-16.0002ZM273.9996,210v16.0002h16.0002v-16.0002h-16.0002ZM194.0004,210v32.0004h15.9993v-32.0004h-15.9993ZM114.0003,210v16.0002h15.9993v-16.0002h-15.9993ZM81.9999,210v16.0002h16.0002v-16.0002h-16.0002ZM34.0002,210v16.0002h16.0002v-16.0002h-16.0002ZM417.9996,226.0002v16.0002h16.0002v-16.0002h-16.0002ZM338.0004,226.0002v31.9995h15.9993v-31.9995h-15.9993ZM322.0002,226.0002v31.9995h16.0002v-31.9995h-16.0002ZM258.0003,226.0002v16.0002h15.9993v-16.0002h-15.9993ZM242.0001,226.0002v16.0002h16.0002v-16.0002h-16.0002ZM209.9997,226.0002v16.0002h16.0002v-16.0002h-16.0002ZM129.9996,226.0002v31.9995h16.0002v-31.9995h-16.0002ZM50.0004,226.0002v16.0002h15.9993v-16.0002h-15.9993ZM18,226.0002v31.9995h16.0002v-31.9995h-16.0002ZM433.9998,242.0004v63.9999h16.0002v-63.9999h-16.0002ZM306,242.0004v15.9993h16.0002v-15.9993h-16.0002ZM178.0002,242.0004v15.9993h16.0002v-15.9993h-16.0002ZM145.9998,242.0004v15.9993h16.0002v-15.9993h-16.0002ZM114.0003,242.0004v15.9993h15.9993v-15.9993h-15.9993ZM450,257.9997v16.0002h16.0002v-16.0002h-16.0002ZM417.9996,257.9997v16.0002h16.0002v-16.0002h-16.0002ZM402.0003,257.9997v32.0004h15.9993v-32.0004h-15.9993ZM386.0001,257.9997v96.0003h16.0002v-96.0003h-16.0002ZM369.9999,257.9997v16.0002h16.0002v-16.0002h-16.0002ZM194.0004,257.9997v16.0002h15.9993v-16.0002h-15.9993ZM81.9999,257.9997v80.0001h16.0002v-80.0001h-16.0002ZM65.9997,257.9997v16.0002h16.0002v-16.0002h-16.0002ZM50.0004,257.9997v16.0002h15.9993v-16.0002h-15.9993ZM34.0002,257.9997v48.0006h16.0002v-48.0006h-16.0002ZM353.9997,273.9999v47.9997h16.0002v-47.9997h-16.0002ZM322.0002,273.9999v16.0002h16.0002v-16.0002h-16.0002ZM258.0003,273.9999v16.0002h15.9993v-16.0002h-15.9993ZM209.9997,273.9999v32.0004h16.0002v-32.0004h-16.0002ZM178.0002,273.9999v16.0002h16.0002v-16.0002h-16.0002ZM145.9998,273.9999v16.0002h16.0002v-16.0002h-16.0002ZM129.9996,273.9999v47.9997h16.0002v-47.9997h-16.0002ZM114.0003,273.9999v16.0002h15.9993v-16.0002h-15.9993ZM417.9996,290.0001v31.9995h16.0002v-31.9995h-16.0002ZM369.9999,290.0001v16.0002h16.0002v-16.0002h-16.0002ZM338.0004,290.0001v31.9995h15.9993v-31.9995h-15.9993ZM98.0001,290.0001v16.0002h16.0002v-16.0002h-16.0002ZM65.9997,290.0001v16.0002h16.0002v-16.0002h-16.0002ZM18,290.0001v16.0002h16.0002v-16.0002h-16.0002ZM306,306.0003v15.9993h16.0002v-15.9993h-16.0002ZM273.9996,306.0003v63.9999h16.0002v-63.9999h-16.0002ZM242.0001,306.0003v15.9993h16.0002v-15.9993h-16.0002ZM194.0004,306.0003v47.9997h15.9993v-47.9997h-15.9993ZM114.0003,306.0003v15.9993h15.9993v-15.9993h-15.9993ZM50.0004,306.0003v15.9993h15.9993v-15.9993h-15.9993ZM369.9999,321.9996v32.0004h16.0002v-32.0004h-16.0002ZM225.9999,321.9996v64.0008h16.0002v-64.0008h-16.0002ZM209.9997,321.9996v48.0006h16.0002v-48.0006h-16.0002ZM178.0002,321.9996v16.0002h16.0002v-16.0002h-16.0002ZM417.9996,337.9998v16.0002h16.0002v-16.0002h-16.0002ZM402.0003,337.9998v112.0005h15.9993v-112.0005h-15.9993ZM353.9997,337.9998v16.0002h16.0002v-16.0002h-16.0002ZM338.0004,337.9998v80.0001h15.9993v-80.0001h-15.9993ZM306,337.9998v16.0002h16.0002v-16.0002h-16.0002ZM242.0001,337.9998v32.0004h16.0002v-32.0004h-16.0002ZM162,337.9998v32.0004h16.0002v-32.0004h-16.0002ZM129.9996,337.9998v16.0002h16.0002v-16.0002h-16.0002ZM114.0003,337.9998v16.0002h15.9993v-16.0002h-15.9993ZM34.0002,337.9998v16.0002h16.0002v-16.0002h-16.0002ZM433.9998,354v32.0004h16.0002v-32.0004h-16.0002ZM450,370.0002v16.0002h16.0002v-16.0002h-16.0002ZM369.9999,370.0002v16.0002h16.0002v-16.0002h-16.0002ZM322.0002,370.0002v31.9995h16.0002v-31.9995h-16.0002ZM306,370.0002v16.0002h16.0002v-16.0002h-16.0002ZM194.0004,370.0002v31.9995h15.9993v-31.9995h-15.9993ZM178.0002,370.0002v16.0002h16.0002v-16.0002h-16.0002ZM18,370.0002v111.9996h111.9996v-111.9996H18ZM34.0002,386.0004h80.0001v79.9992H34.0002v-79.9992ZM417.9996,386.0004v15.9993h16.0002v-15.9993h-16.0002ZM162,386.0004v15.9993h16.0002v-15.9993h-16.0002ZM145.9998,386.0004v31.9995h16.0002v-31.9995h-16.0002ZM466.0002,401.9997v16.0002h16.0002v-16.0002h-16.0002ZM450,401.9997v32.0004h16.0002v-32.0004h-16.0002ZM433.9998,401.9997v63.9999h16.0002v-63.9999h-16.0002ZM386.0001,401.9997v32.0004h16.0002v-32.0004h-16.0002ZM369.9999,401.9997v16.0002h16.0002v-16.0002h-16.0002ZM353.9997,401.9997v32.0004h16.0002v-32.0004h-16.0002ZM306,401.9997v16.0002h16.0002v-16.0002h-16.0002ZM289.9998,401.9997v16.0002h16.0002v-16.0002h-16.0002ZM273.9996,401.9997v63.9999h16.0002v-63.9999h-16.0002ZM225.9999,401.9997v32.0004h16.0002v-32.0004h-16.0002ZM50.0004,401.9997v48.0006h47.9997v-48.0006h-47.9997ZM417.9996,417.9999v32.0004h16.0002v-32.0004h-16.0002ZM322.0002,417.9999v16.0002h16.0002v-16.0002h-16.0002ZM258.0003,417.9999v16.0002h15.9993v-16.0002h-15.9993ZM209.9997,417.9999v63.9999h16.0002v-63.9999h-16.0002ZM178.0002,417.9999v16.0002h16.0002v-16.0002h-16.0002ZM162,417.9999v32.0004h16.0002v-32.0004h-16.0002ZM466.0002,434.0001v16.0002h16.0002v-16.0002h-16.0002ZM289.9998,434.0001v47.9997h16.0002v-47.9997h-16.0002ZM450,450.0003v15.9993h16.0002v-15.9993h-16.0002ZM386.0001,450.0003v31.9995h16.0002v-31.9995h-16.0002ZM225.9999,450.0003v31.9995h16.0002v-31.9995h-16.0002ZM194.0004,450.0003v15.9993h15.9993v-15.9993h-15.9993ZM353.9997,465.9996v16.0002h16.0002v-16.0002h-16.0002ZM162,465.9996v16.0002h16.0002v-16.0002h-16.0002ZM145.9998,465.9996v16.0002h16.0002v-16.0002h-16.0002Z" fill="none"/>
    </clipPath>
  </defs>
  <!-- Generator: Adobe Illustrator 28.7.1, SVG Export Plug-In . SVG Version: 1.2.0 Build 142)  -->
  <g>
    <g id="Layer_1">
      <g clip-path="url(#clippath-1)">
        <rect y="0" width="500" height="500" fill="#fff"/>
      </g>
      <g clip-path="url(#clippath-2)">
        <rect y="0" width="500" height="500"/>
      </g>
    </g>
  </g>
</svg>